<svg width="246" height="56" viewBox="0 0 246 56" fill="none" xmlns="http://www.w3.org/2000/svg">
<path d="M161.24 50.223C161.24 51.1693 160.96 52.0944 160.434 52.8812C159.908 53.668 159.16 54.2813 158.286 54.6434C157.411 55.0055 156.449 55.1003 155.52 54.9157C154.592 54.7311 153.739 54.2754 153.07 53.6062C152.4 52.9371 151.945 52.0846 151.76 51.1565C151.575 50.2284 151.67 49.2663 152.032 48.3921C152.395 47.5178 153.008 46.7706 153.795 46.2448C154.582 45.7191 155.507 45.4385 156.454 45.4385C157.72 45.4483 158.932 45.9555 159.828 46.8507C160.723 47.7458 161.23 48.9571 161.24 50.223Z" fill="#85714D"/>
<path d="M20.4084 1.0166C17.5591 1.0166 12.5561 1.15863 9.12358 1.23339C8.50288 1.23339 7.91957 1.27078 7.29887 1.27078C4.5244 1.27078 1.71254 1.12126 0 1.0166V2.51178C5.07031 2.72858 6.05746 3.49859 6.05746 8.93355V46.0213C6.05746 51.4638 5.07031 52.2263 0 52.4506V53.9458C2.07898 53.7963 5.76582 53.729 9.27316 53.729C12.4888 53.729 17.4993 53.9458 19.7428 53.9458C36.943 53.9458 46.807 43.173 46.807 26.8981C46.8144 10.2119 38.2293 1.0166 20.4084 1.0166ZM18.6211 52.6001C13.9845 52.6001 12.9974 51.3965 12.9974 46.1784V8.79899C12.9974 3.64811 13.9845 2.36973 18.5463 2.36973C34.0339 2.36973 39.3286 10.4437 39.3286 27.1971C39.3286 43.4721 34.9089 52.5926 18.6211 52.5926V52.6001Z" fill="white"/>
<path d="M66.6244 14.4136C57.1269 14.4136 49.6411 20.3943 49.6411 34.748C49.6411 49.1016 57.1195 55.0001 66.6244 55.0001C76.1294 55.0001 83.6003 49.0867 83.6003 34.748C83.6003 20.4092 76.1145 14.4136 66.6244 14.4136ZM66.6244 53.5049C60.9633 53.5049 56.9026 48.1073 56.9026 34.748C56.9026 21.3886 60.9559 15.9087 66.6244 15.9087C72.293 15.9087 76.3463 21.3512 76.3463 34.748C76.3463 48.1447 72.3229 53.5049 66.6244 53.5049Z" fill="white"/>
<path d="M139.037 9.56912C141.68 9.56912 143.823 7.427 143.823 4.78456C143.823 2.14212 141.68 0 139.037 0C136.394 0 134.251 2.14212 134.251 4.78456C134.251 7.427 136.394 9.56912 139.037 9.56912Z" fill="white"/>
<path d="M142.904 46.9855V14.6001C140.375 15.3071 137.75 15.6124 135.126 15.5047H117.126V4.6123C114.951 5.31413 112.68 5.67228 110.395 5.67387V15.5047H94.6908V4.6123C92.5162 5.31413 90.2454 5.67228 87.9603 5.67387V15.5047H80.7661V16.9998H87.9603V42.044C87.9603 47.3743 88.7081 50.2675 90.8843 52.5102C92.5221 54.1549 94.5337 54.9922 97.9663 54.9922C102.805 54.9922 105.445 52.1289 106.851 48.0023L105.116 47.5687C103.665 50.9627 101.81 52.2934 99.462 52.2934C96.4706 52.2934 94.6758 50.6487 94.6758 45.9464V16.9998H110.38V42.044C110.38 47.3743 111.128 50.2675 113.297 52.5102C114.942 54.1549 116.954 54.9922 120.386 54.9922C125.21 54.9922 127.865 52.1514 129.256 48.0396L127.521 47.606C126.077 50.9777 124.223 52.2934 121.882 52.2934C118.891 52.2934 117.096 50.6487 117.096 45.9464V16.9998H130.46C134.805 16.9998 136.158 19.123 136.158 23.6085V46.9855C136.158 51.1496 134.588 52.3532 130.46 52.3532V53.9232C132.18 53.8484 136.083 53.6316 139.516 53.6316C142.948 53.6316 146.86 53.8484 148.572 53.9232V52.3532C144.482 52.3756 142.904 51.172 142.904 46.9855Z" fill="white"/>
<path d="M173.849 14.0918C173.849 14.4357 173.789 14.7646 173.774 15.0861C173.759 15.4075 173.774 15.6542 173.774 15.8337C173.774 16.0131 173.774 16.2523 173.774 16.4392C173.774 16.6261 173.774 16.7981 173.774 16.9401H173.467C173.425 16.4349 173.337 15.9345 173.206 15.4449C173.125 15.1174 172.922 14.8336 172.637 14.6525C172.247 14.4615 171.814 14.3765 171.381 14.4058H170.521C170.287 14.3998 170.053 14.4249 169.825 14.4805C169.751 14.503 169.684 14.5434 169.629 14.5982C169.574 14.653 169.534 14.7204 169.511 14.7945C169.442 15.0373 169.414 15.2901 169.429 15.5421V22.2704C169.415 22.5235 169.448 22.7769 169.526 23.018C169.563 23.0996 169.619 23.1713 169.69 23.2272C169.76 23.2831 169.842 23.3215 169.93 23.3394C170.215 23.404 170.506 23.4415 170.798 23.4516V23.7207L169.9 23.6833H167.814C167.507 23.6833 167.26 23.6833 167.066 23.7207V23.4516C167.304 23.4405 167.539 23.4029 167.769 23.3394C167.843 23.3151 167.911 23.2732 167.965 23.2172C168.02 23.1612 168.06 23.0929 168.083 23.018C168.151 22.7749 168.179 22.5224 168.165 22.2704V15.5421C168.18 15.2901 168.152 15.0373 168.083 14.7945C168.06 14.7196 168.02 14.6513 167.965 14.5953C167.911 14.5393 167.843 14.4974 167.769 14.4731C167.541 14.4017 167.304 14.3664 167.066 14.3684V14.0918H168.494C168.995 14.0918 169.474 14.0918 169.923 14.0918H172.413C172.959 14.1441 173.43 14.1292 173.849 14.0918ZM171.747 18.8614V19.1305H169.033V18.8614H171.747ZM172.002 17.0672C172.002 17.583 171.949 17.9792 171.957 18.2484C171.964 18.5175 171.957 18.7717 171.957 18.996C171.957 19.2202 171.957 19.4669 171.957 19.7436C171.957 20.0202 171.957 20.4089 172.024 20.9248H171.71C171.673 20.6407 171.628 20.3566 171.583 20.08C171.543 19.8255 171.429 19.5886 171.254 19.3997C171.137 19.3022 171.003 19.2288 170.858 19.1839C170.712 19.139 170.56 19.1234 170.409 19.138V18.8689C170.562 18.8862 170.717 18.8667 170.862 18.8121C171.006 18.7575 171.135 18.6693 171.239 18.5549C171.406 18.3376 171.512 18.0794 171.545 17.8073C171.59 17.5307 171.635 17.2765 171.673 17.0597L172.002 17.0672Z" fill="white"/>
<path d="M180.909 16.5815V22.2408C180.885 22.5585 180.964 22.8754 181.133 23.1454C181.236 23.253 181.363 23.3354 181.503 23.3859C181.643 23.4365 181.793 23.454 181.941 23.4369V23.721C181.66 23.6912 181.378 23.6762 181.096 23.6762C180.846 23.6755 180.596 23.6905 180.348 23.721C180.123 23.7409 179.901 23.7912 179.69 23.8705V22.2707C179.521 22.7828 179.183 23.2228 178.732 23.5192C178.355 23.7611 177.917 23.8907 177.469 23.893C177.186 23.8996 176.905 23.854 176.639 23.7584C176.418 23.6761 176.219 23.5459 176.055 23.3771C175.873 23.1815 175.751 22.9376 175.704 22.6744C175.631 22.3228 175.599 21.9642 175.607 21.6053V18.2038C175.631 17.8894 175.555 17.5754 175.39 17.3067C175.288 17.1976 175.161 17.1143 175.021 17.0636C174.881 17.0129 174.73 16.9963 174.582 17.0152V16.7236C174.86 16.753 175.14 16.768 175.42 16.7684C175.67 16.7688 175.919 16.7538 176.167 16.7236C176.387 16.6917 176.605 16.6442 176.818 16.5815V21.9044C176.819 22.1547 176.839 22.4047 176.878 22.652C176.89 22.7661 176.925 22.8766 176.981 22.9768C177.036 23.077 177.112 23.1647 177.203 23.2347C177.294 23.3046 177.398 23.3553 177.51 23.3837C177.621 23.412 177.737 23.4174 177.85 23.3996C178.111 23.4013 178.369 23.3371 178.599 23.213C178.829 23.0888 179.024 22.9088 179.166 22.6893C179.522 22.1796 179.703 21.5686 179.682 20.9475V18.2038C179.706 17.8894 179.631 17.5754 179.465 17.3067C179.362 17.198 179.234 17.115 179.092 17.0644C178.951 17.0138 178.799 16.9969 178.65 17.0152V16.7236C178.931 16.753 179.213 16.768 179.495 16.7684C179.745 16.7691 179.995 16.7541 180.243 16.7236C180.468 16.6912 180.69 16.6438 180.909 16.5815Z" fill="white"/>
<path d="M187.317 16.5367C187.61 16.5278 187.901 16.5735 188.177 16.6713C188.396 16.7518 188.594 16.8823 188.753 17.0526C188.933 17.2433 189.059 17.4779 189.12 17.7329C189.204 18.0903 189.242 18.4572 189.232 18.8244V22.4427C189.218 22.5771 189.232 22.7128 189.273 22.8415C189.314 22.9702 189.382 23.0889 189.471 23.1903C189.704 23.3468 189.984 23.4181 190.264 23.3921V23.6762L189.516 23.6388H188.596H187.721L187.078 23.6762V23.3921C187.327 23.4161 187.576 23.3439 187.773 23.1903C187.928 22.9733 188 22.708 187.975 22.4427V18.5328C187.975 18.2821 187.953 18.0319 187.908 17.7852C187.871 17.5674 187.763 17.3678 187.601 17.2171C187.389 17.0527 187.121 16.9753 186.854 17.0003C186.583 16.996 186.316 17.0586 186.076 17.1825C185.836 17.3064 185.631 17.4878 185.478 17.7105C185.116 18.2234 184.932 18.8403 184.954 19.4673V22.4576C184.93 22.723 185.001 22.9882 185.156 23.2052C185.354 23.3589 185.602 23.4311 185.852 23.4071V23.6912L185.208 23.6538H184.333H183.414L182.703 23.6912V23.4071C182.983 23.4331 183.263 23.3618 183.496 23.2052C183.584 23.1031 183.651 22.9843 183.692 22.8559C183.733 22.7274 183.748 22.5919 183.735 22.4576V18.2039C183.759 17.8895 183.683 17.5754 183.518 17.3068C183.415 17.198 183.287 17.1151 183.145 17.0644C183.004 17.0138 182.852 16.997 182.703 17.0152V16.7236C182.984 16.7531 183.266 16.768 183.548 16.7685C183.798 16.7692 184.048 16.7542 184.296 16.7236C184.518 16.6917 184.738 16.6443 184.954 16.5816V18.174C185.123 17.6451 185.472 17.1926 185.941 16.8956C186.358 16.6517 186.834 16.5275 187.317 16.5367Z" fill="white"/>
<path d="M194.317 16.5369C194.707 16.5368 195.09 16.6345 195.432 16.8209C195.611 16.9243 195.767 17.0654 195.887 17.2344C196.007 17.4035 196.089 17.5965 196.127 17.8003L195.955 17.9349C195.858 17.5849 195.638 17.2819 195.334 17.0826C195.052 16.9083 194.724 16.82 194.392 16.8284C194.116 16.8367 193.848 16.9169 193.613 17.0612C193.378 17.2055 193.185 17.4088 193.053 17.6508C192.646 18.4355 192.467 19.3188 192.537 20.2001C192.522 20.8149 192.592 21.4288 192.747 22.0241C192.844 22.4379 193.06 22.8144 193.367 23.1082C193.648 23.3483 194.008 23.4761 194.377 23.467C194.574 23.4631 194.767 23.4177 194.945 23.334C195.123 23.2503 195.281 23.13 195.409 22.9811C195.748 22.5772 195.942 22.0722 195.962 21.5457L196.127 21.7326C196.095 22.3205 195.863 22.8798 195.469 23.3175C195.272 23.5086 195.037 23.6565 194.779 23.7518C194.522 23.847 194.247 23.8875 193.973 23.8707C193.446 23.8869 192.925 23.7464 192.478 23.467C192.038 23.17 191.701 22.7444 191.513 22.2484C191.276 21.5923 191.164 20.8974 191.184 20.2001C191.159 19.4929 191.305 18.7903 191.61 18.1516C191.859 17.6425 192.249 17.2147 192.732 16.9181C193.215 16.6467 193.764 16.5147 194.317 16.5369ZM197.159 13.083V22.226C197.135 22.5437 197.214 22.8607 197.383 23.1306C197.486 23.2382 197.613 23.3206 197.753 23.3712C197.893 23.4217 198.043 23.4392 198.191 23.4222V23.7062C197.913 23.679 197.633 23.6665 197.353 23.6688C197.104 23.6659 196.854 23.6784 196.606 23.7062C196.381 23.7305 196.16 23.7807 195.948 23.8557V14.7053C195.972 14.3909 195.896 14.0769 195.731 13.8082C195.627 13.6994 195.499 13.6165 195.358 13.5659C195.216 13.5152 195.065 13.4984 194.915 13.5166V13.2325C195.207 13.2325 195.484 13.2325 195.761 13.2325C196.011 13.2332 196.26 13.2182 196.508 13.1877C196.728 13.1712 196.945 13.1362 197.159 13.083Z" fill="white"/>
<path d="M200.824 23.8106C200.59 23.831 200.355 23.8023 200.134 23.7264C199.912 23.6504 199.709 23.5288 199.537 23.3695C199.263 23.0414 199.122 22.6227 199.141 22.1958C199.124 21.8596 199.222 21.5277 199.418 21.2538C199.609 21.0017 199.851 20.7928 200.128 20.6408C200.421 20.4821 200.726 20.3471 201.04 20.2371L201.96 19.9081C202.211 19.8153 202.45 19.6923 202.671 19.5418C202.757 19.4862 202.827 19.4098 202.876 19.3196C202.924 19.2293 202.949 19.1284 202.947 19.026V18.1812C202.966 17.8822 202.907 17.5834 202.775 17.314C202.679 17.1321 202.519 16.9913 202.327 16.9178C202.12 16.8467 201.902 16.8113 201.684 16.8131C201.431 16.8157 201.18 16.8483 200.936 16.9103C200.689 16.9671 200.47 17.107 200.315 17.3065C200.491 17.3423 200.649 17.4373 200.764 17.5757C200.894 17.7299 200.96 17.9275 200.951 18.1289C200.956 18.229 200.94 18.3292 200.903 18.4223C200.865 18.5154 200.807 18.599 200.734 18.6672C200.58 18.799 200.383 18.8684 200.18 18.8615C200.072 18.8708 199.962 18.8532 199.862 18.8101C199.761 18.7671 199.673 18.7 199.605 18.6148C199.484 18.4498 199.419 18.251 199.418 18.0467C199.409 17.8421 199.473 17.641 199.597 17.4785C199.729 17.3254 199.88 17.1898 200.046 17.0748C200.296 16.9124 200.568 16.7865 200.853 16.701C201.215 16.5919 201.59 16.5389 201.968 16.544C202.289 16.538 202.609 16.5809 202.917 16.6711C203.159 16.7465 203.381 16.8741 203.568 17.0449C203.8 17.2555 203.962 17.532 204.032 17.8373C204.106 18.2065 204.141 18.5823 204.136 18.9587V22.6967C204.124 22.8621 204.158 23.0277 204.234 23.1751C204.268 23.2282 204.316 23.271 204.372 23.2987C204.429 23.3264 204.492 23.3379 204.555 23.3321C204.673 23.3332 204.788 23.3049 204.892 23.2499C204.992 23.1944 205.085 23.1266 205.168 23.048L205.318 23.2798C205.144 23.4115 204.962 23.5314 204.772 23.6386C204.557 23.7399 204.321 23.7886 204.084 23.7806C203.91 23.8042 203.733 23.7829 203.569 23.7188C203.406 23.6547 203.261 23.5499 203.149 23.4143C202.989 23.1622 202.909 22.868 202.917 22.5696C202.696 22.9827 202.354 23.3189 201.938 23.534C201.59 23.703 201.21 23.7972 200.824 23.8106ZM201.414 23.2648C201.698 23.2626 201.976 23.1797 202.215 23.0256C202.525 22.8269 202.782 22.5547 202.962 22.2332V19.5792C202.805 19.7976 202.586 19.9642 202.334 20.0577C202.05 20.1698 201.751 20.2969 201.452 20.4389C201.167 20.5767 200.913 20.7699 200.704 21.0071C200.471 21.2959 200.354 21.6609 200.375 22.0313C200.361 22.1991 200.382 22.3679 200.436 22.5273C200.49 22.6867 200.576 22.8334 200.689 22.9583C200.882 23.1489 201.143 23.2562 201.414 23.2573V23.2648Z" fill="white"/>
<path d="M209.206 16.5369C209.598 16.5359 209.984 16.6336 210.328 16.8209C210.512 16.9289 210.67 17.0748 210.792 17.2489C210.915 17.4229 210.999 17.6211 211.039 17.8302L210.867 17.9648C210.788 17.6106 210.583 17.2971 210.291 17.0826C210.008 16.9083 209.681 16.82 209.349 16.8284C209.073 16.8367 208.804 16.9169 208.57 17.0612C208.335 17.2055 208.142 17.4088 208.01 17.6508C207.603 18.4355 207.424 19.3188 207.494 20.2001C207.479 20.8149 207.549 21.4288 207.703 22.0241C207.798 22.439 208.014 22.8164 208.324 23.1082C208.605 23.3483 208.964 23.4761 209.334 23.467C209.53 23.4631 209.724 23.4177 209.901 23.334C210.079 23.2503 210.237 23.13 210.366 22.9811C210.704 22.5772 210.899 22.0722 210.919 21.5457L211.084 21.7326C211.052 22.3205 210.819 22.8798 210.425 23.3175C210.228 23.5086 209.994 23.6565 209.736 23.7518C209.478 23.847 209.204 23.8875 208.93 23.8707C208.402 23.8869 207.882 23.7464 207.434 23.467C206.995 23.17 206.658 22.7444 206.469 22.2484C206.232 21.5923 206.121 20.8974 206.14 20.2001C206.116 19.4929 206.262 18.7903 206.567 18.1516C206.802 17.655 207.175 17.2365 207.642 16.9462C208.109 16.6559 208.649 16.506 209.199 16.5144L209.206 16.5369ZM212.056 13.083V22.226C212.032 22.5437 212.111 22.8607 212.28 23.1306C212.383 23.2382 212.51 23.3206 212.65 23.3712C212.79 23.4217 212.94 23.4392 213.088 23.4222V23.7062C212.807 23.6788 212.525 23.6664 212.243 23.6688C211.993 23.6658 211.743 23.6783 211.495 23.7062C211.27 23.7297 211.049 23.7799 210.837 23.8557V14.7053C210.861 14.3909 210.785 14.0769 210.62 13.8082C210.516 13.6994 210.388 13.6165 210.247 13.5659C210.105 13.5152 209.954 13.4984 209.805 13.5166V13.2325C210.096 13.2325 210.373 13.2325 210.65 13.2325C210.9 13.2332 211.15 13.2182 211.398 13.1877C211.619 13.1708 211.84 13.1358 212.056 13.083Z" fill="white"/>
<path d="M217.223 16.5365C217.766 16.5284 218.302 16.6597 218.779 16.9178C219.26 17.1922 219.646 17.6069 219.886 18.1064C220.186 18.7701 220.326 19.4945 220.297 20.2221C220.327 20.9474 220.187 21.6696 219.886 22.3303C219.646 22.8299 219.26 23.2446 218.779 23.519C218.297 23.7645 217.764 23.8925 217.223 23.8925C216.683 23.8925 216.15 23.7645 215.668 23.519C215.182 23.2411 214.793 22.821 214.554 22.3154C214.256 21.6535 214.116 20.9321 214.142 20.2072C214.116 19.4798 214.257 18.7562 214.554 18.0915C214.796 17.5914 215.184 17.1768 215.668 16.9028C216.147 16.65 216.682 16.5239 217.223 16.5365ZM217.223 16.8057C216.96 16.8151 216.703 16.894 216.48 17.0345C216.257 17.175 216.075 17.372 215.952 17.6056C215.292 19.2875 215.292 21.1568 215.952 22.8387C216.069 23.0752 216.249 23.2743 216.473 23.4135C216.697 23.5528 216.956 23.6266 217.22 23.6266C217.483 23.6266 217.742 23.5528 217.966 23.4135C218.19 23.2743 218.371 23.0752 218.487 22.8387C219.148 21.1568 219.148 19.2875 218.487 17.6056C218.365 17.3731 218.184 17.1767 217.963 17.0363C217.741 16.8959 217.486 16.8164 217.223 16.8057Z" fill="white"/>
<path d="M227.132 16.5817V24.8949C227.113 25.0446 227.134 25.1968 227.195 25.3352C227.256 25.4735 227.353 25.5926 227.476 25.6798C227.772 25.8231 228.098 25.89 228.426 25.8742V26.1583L227.603 26.1209H226.482H225.644L225.016 26.1583V25.8742C225.259 25.8971 225.503 25.8336 225.704 25.6948C225.782 25.6054 225.84 25.5007 225.875 25.3873C225.91 25.274 225.92 25.1546 225.906 25.0369V18.2039C225.93 17.8895 225.854 17.5755 225.689 17.3068C225.587 17.1977 225.461 17.1144 225.32 17.0637C225.18 17.013 225.029 16.9964 224.881 17.0153V16.7237C225.16 16.7532 225.439 16.7681 225.719 16.7686C225.969 16.7689 226.219 16.7539 226.467 16.7237C226.692 16.6913 226.914 16.6439 227.132 16.5817ZM229.294 16.5368C229.64 16.5313 229.983 16.606 230.296 16.7552C230.608 16.9043 230.882 17.1239 231.096 17.3966C231.632 18.1175 231.897 19.0042 231.844 19.901C231.842 20.5449 231.733 21.1841 231.522 21.7924C231.331 22.3711 230.988 22.8877 230.527 23.2875C230.026 23.6992 229.389 23.9097 228.74 23.8781C228.35 23.8888 227.965 23.7848 227.633 23.5791C227.343 23.4109 227.121 23.1464 227.005 22.8315L227.14 22.6446C227.266 22.8983 227.454 23.1167 227.686 23.2801C228.006 23.4836 228.386 23.5729 228.763 23.5335C229.14 23.4942 229.493 23.3284 229.765 23.0633C230.069 22.7013 230.273 22.2656 230.355 21.7998C230.457 21.23 230.499 20.6514 230.483 20.0729C230.497 19.4772 230.436 18.882 230.303 18.3011C230.229 17.9149 230.048 17.5574 229.78 17.2695C229.547 17.0457 229.235 16.9223 228.912 16.9256C228.683 16.9301 228.457 16.9815 228.249 17.0766C228.041 17.1718 227.854 17.3087 227.701 17.4788C227.298 17.943 227.056 18.5254 227.013 19.1384L226.848 18.9515C226.903 18.2754 227.194 17.6401 227.671 17.1573C227.886 16.9512 228.141 16.7902 228.42 16.6836C228.698 16.5771 228.995 16.5272 229.294 16.5368Z" fill="white"/>
<path d="M236.308 16.5365C236.85 16.5284 237.386 16.6597 237.863 16.9178C238.345 17.1921 238.731 17.6068 238.97 18.1064C239.27 18.7701 239.411 19.4945 239.382 20.2221C239.412 20.9474 239.271 21.6696 238.97 22.3303C238.731 22.8299 238.345 23.2446 237.863 23.5189C237.382 23.7644 236.849 23.8924 236.308 23.8924C235.767 23.8924 235.234 23.7644 234.752 23.5189C234.269 23.245 233.88 22.8304 233.638 22.3303C233.341 21.6684 233.2 20.9471 233.227 20.2221C233.201 19.4948 233.342 18.7711 233.638 18.1064C233.88 17.6063 234.269 17.1917 234.752 16.9178C235.23 16.6597 235.765 16.5284 236.308 16.5365ZM236.308 16.8056C236.044 16.815 235.788 16.894 235.564 17.0345C235.341 17.1749 235.159 17.372 235.037 17.6056C234.376 19.2875 234.376 21.1567 235.037 22.8387C235.153 23.0752 235.334 23.2743 235.558 23.4135C235.782 23.5527 236.04 23.6265 236.304 23.6265C236.568 23.6265 236.826 23.5527 237.05 23.4135C237.274 23.2743 237.455 23.0752 237.572 22.8387C238.232 21.1567 238.232 19.2875 237.572 17.6056C237.45 17.373 237.269 17.1767 237.047 17.0363C236.825 16.8959 236.57 16.8163 236.308 16.8056Z" fill="white"/>
<path d="M244.766 16.5367C244.989 16.534 245.21 16.5853 245.409 16.6863C245.583 16.7787 245.732 16.9121 245.843 17.075C245.942 17.2343 245.994 17.4183 245.993 17.6058C245.998 17.824 245.923 18.0366 245.783 18.2039C245.717 18.2892 245.632 18.3574 245.535 18.403C245.437 18.4485 245.33 18.47 245.222 18.4655C245.038 18.4671 244.859 18.4005 244.721 18.2786C244.648 18.2131 244.591 18.132 244.554 18.0415C244.516 17.951 244.499 17.8532 244.504 17.7553C244.5 17.5964 244.55 17.4407 244.646 17.3142C244.737 17.1998 244.845 17.1013 244.968 17.0227C244.936 16.9783 244.893 16.9428 244.843 16.9193C244.793 16.8958 244.739 16.885 244.684 16.8881C244.498 16.8874 244.313 16.9248 244.142 16.9981C243.971 17.0714 243.817 17.179 243.689 17.3142C243.407 17.6106 243.183 17.9582 243.031 18.3384C242.885 18.6868 242.806 19.0597 242.799 19.4374V22.3156C242.777 22.4844 242.801 22.6561 242.868 22.8126C242.935 22.9692 243.043 23.1048 243.181 23.2052C243.507 23.3694 243.87 23.4466 244.235 23.4295V23.7136L243.353 23.6762H242.149H241.229L240.548 23.7136V23.4295C240.828 23.4543 241.107 23.3831 241.341 23.2277C241.429 23.1256 241.496 23.0067 241.537 22.8783C241.578 22.7498 241.593 22.6144 241.58 22.4801V18.2039C241.605 17.8895 241.529 17.5754 241.363 17.3068C241.259 17.1985 241.132 17.1158 240.99 17.0653C240.849 17.0147 240.698 16.9975 240.548 17.0152V16.7236C240.827 16.7531 241.106 16.7681 241.386 16.7685C241.636 16.7688 241.886 16.7538 242.134 16.7236C242.356 16.6909 242.576 16.6435 242.792 16.5816V18.2711C242.9 17.9901 243.043 17.7239 243.218 17.4787C243.399 17.2152 243.628 16.9872 243.891 16.8059C244.147 16.627 244.453 16.5328 244.766 16.5367Z" fill="white"/>
<path d="M167.081 30.0008H167.829C168.136 30.0008 168.435 30.0008 168.734 30.0008C169.16 30.0008 169.571 30.0008 169.96 30.0008H170.783C171.655 29.937 172.522 30.1774 173.236 30.6811C173.492 30.8796 173.699 31.1347 173.841 31.4265C173.982 31.7184 174.054 32.0389 174.051 32.3632C174.047 32.6597 173.992 32.9532 173.886 33.2304C173.769 33.5591 173.577 33.8561 173.326 34.0976C173.013 34.3956 172.641 34.6248 172.234 34.7704C171.67 34.9593 171.078 35.0479 170.484 35.0321H169.16V34.7629H170.327C170.844 34.795 171.36 34.6892 171.822 34.4564C172.141 34.2749 172.385 33.9861 172.51 33.6416C172.64 33.2796 172.704 32.8972 172.697 32.5127C172.735 31.9161 172.554 31.3261 172.189 30.8531C171.958 30.6347 171.683 30.4688 171.382 30.3668C171.082 30.2649 170.762 30.2293 170.446 30.2625C170.302 30.2417 170.155 30.2516 170.014 30.2915C169.874 30.3315 169.743 30.4005 169.631 30.4942C169.474 30.7788 169.408 31.1054 169.444 31.4287V38.157C169.431 38.409 169.459 38.6615 169.526 38.9046C169.549 38.9795 169.589 39.0478 169.644 39.1038C169.699 39.1597 169.766 39.2017 169.841 39.226C170.067 39.2903 170.301 39.3279 170.536 39.3382V39.6073C170.334 39.6073 170.072 39.6073 169.788 39.5699H167.859C167.552 39.5699 167.305 39.5699 167.111 39.6073V39.3382C167.349 39.3271 167.585 39.2895 167.814 39.226C167.888 39.2017 167.956 39.1597 168.01 39.1038C168.065 39.0478 168.105 38.9795 168.128 38.9046C168.196 38.6615 168.224 38.409 168.21 38.157V31.4287C168.225 31.1767 168.197 30.9239 168.128 30.6811C168.105 30.6062 168.065 30.5379 168.01 30.4819C167.956 30.4259 167.888 30.384 167.814 30.3597C167.587 30.2883 167.349 30.2529 167.111 30.255L167.081 30.0008ZM169.235 34.8078C169.728 34.8078 170.11 34.8452 170.394 34.8676L171.075 34.9274L171.583 34.9947C172.065 35.0424 172.522 35.2353 172.892 35.5479C173.201 35.8984 173.405 36.3283 173.483 36.7889L173.819 38.1719C173.878 38.4681 173.971 38.7565 174.096 39.0317C174.137 39.1117 174.201 39.1778 174.279 39.2217C174.358 39.2656 174.447 39.2853 174.537 39.2784C174.68 39.2748 174.817 39.222 174.926 39.1288C175.048 39.0185 175.158 38.8957 175.255 38.7625L175.457 38.9121C175.302 39.159 175.104 39.3766 174.874 39.555C174.614 39.7166 174.311 39.7949 174.006 39.7792C173.688 39.7853 173.379 39.6795 173.131 39.4802C172.814 39.1707 172.613 38.7615 172.563 38.3215L172.264 36.9608C172.192 36.6192 172.099 36.2821 171.987 35.9516C171.9 35.6972 171.751 35.4685 171.553 35.2863C171.318 35.1064 171.026 35.0186 170.73 35.0395H169.235V34.8078Z" fill="white"/>
<path d="M179.121 32.4227C179.467 32.4061 179.813 32.4643 180.134 32.5933C180.455 32.7223 180.745 32.9191 180.983 33.1703C181.48 33.8077 181.72 34.6077 181.656 35.413H176.87V35.1514H180.378C180.395 34.7395 180.357 34.3272 180.265 33.9253C180.197 33.5964 180.051 33.2887 179.839 33.0282C179.748 32.9194 179.633 32.8327 179.504 32.7744C179.374 32.7162 179.233 32.6879 179.091 32.6918C178.872 32.6994 178.657 32.7598 178.466 32.8678C178.274 32.9758 178.112 33.1283 177.992 33.3123C177.615 33.9041 177.415 34.5916 177.416 35.2934V35.3458C177.416 35.4803 177.416 35.6298 177.416 35.7943C177.416 35.9588 177.416 36.1158 177.416 36.2802C177.401 36.8238 177.503 37.3643 177.715 37.8651C177.871 38.2618 178.129 38.61 178.463 38.8744C178.749 39.0933 179.098 39.2139 179.458 39.2182C179.854 39.2229 180.245 39.1196 180.587 38.9192C180.979 38.6665 181.282 38.298 181.454 37.8651L181.724 37.9698C181.616 38.2862 181.452 38.5802 181.238 38.837C181.001 39.1183 180.708 39.3474 180.378 39.5098C180.006 39.6923 179.595 39.7821 179.181 39.7715C178.592 39.7872 178.011 39.6342 177.506 39.3304C177.039 39.0264 176.668 38.596 176.436 38.0894C176.179 37.5162 176.052 36.8934 176.063 36.2653C176.045 35.561 176.175 34.8608 176.444 34.2094C176.665 33.6742 177.036 33.2145 177.513 32.8862C177.99 32.5722 178.551 32.4105 179.121 32.4227Z" fill="white"/>
<path d="M187.378 32.4228C187.67 32.4146 187.962 32.4602 188.238 32.5574C188.456 32.6398 188.652 32.77 188.813 32.9387C188.992 33.1304 189.118 33.3646 189.18 33.619C189.257 33.9774 189.293 34.3438 189.284 34.7104V38.3288C189.272 38.4631 189.287 38.5985 189.328 38.727C189.369 38.8554 189.436 38.9743 189.524 39.0764C189.757 39.2329 190.037 39.3042 190.316 39.2782V39.5623L189.614 39.5249H188.686H187.819L187.168 39.5623V39.2782C187.417 39.3038 187.667 39.2314 187.864 39.0764C188.018 38.8593 188.09 38.5941 188.066 38.3288V34.4189C188.066 34.1682 188.043 33.918 187.998 33.6713C187.961 33.4535 187.853 33.2539 187.692 33.1031C187.479 32.9381 187.212 32.8606 186.944 32.8863C186.674 32.8821 186.407 32.9447 186.166 33.0686C185.926 33.1925 185.721 33.3739 185.568 33.5965C185.21 34.1111 185.026 34.7269 185.044 35.3534V38.3437C185.022 38.61 185.096 38.8753 185.254 39.0913C185.448 39.2452 185.695 39.3175 185.942 39.2932V39.5772L185.299 39.5399H184.424H183.504L182.801 39.5772V39.2932C183.08 39.3179 183.36 39.2467 183.593 39.0913C183.68 38.9884 183.745 38.8693 183.785 38.7409C183.825 38.6125 183.838 38.4775 183.825 38.3437V34.1049C183.849 33.7905 183.774 33.4765 183.608 33.2078C183.507 33.0987 183.38 33.0154 183.24 32.9647C183.099 32.914 182.949 32.8974 182.801 32.9162V32.6247C183.079 32.6541 183.359 32.6691 183.638 32.6695C183.888 32.6699 184.138 32.6549 184.386 32.6247C184.606 32.5928 184.824 32.5453 185.037 32.4826V34.075C185.208 33.5477 185.557 33.0959 186.024 32.7966C186.433 32.5514 186.901 32.4222 187.378 32.4228Z" fill="white"/>
<path d="M194.34 32.4226C194.686 32.4045 195.032 32.4621 195.353 32.5912C195.675 32.7203 195.964 32.9179 196.202 33.1702C196.698 33.8076 196.938 34.6076 196.875 35.413H192.089V35.1513H195.581C195.605 34.7397 195.57 34.3269 195.477 33.9253C195.409 33.5964 195.262 33.2887 195.05 33.0282C194.958 32.9202 194.844 32.834 194.714 32.7758C194.585 32.7177 194.444 32.6889 194.302 32.6918C194.082 32.6982 193.866 32.758 193.673 32.866C193.48 32.9741 193.316 33.1272 193.196 33.3122C192.822 33.9055 192.622 34.5921 192.62 35.2933L192.665 35.3457C192.641 35.4942 192.626 35.644 192.62 35.7942C192.62 35.9512 192.62 36.1157 192.62 36.2802C192.608 36.8235 192.71 37.3632 192.919 37.865C193.08 38.2589 193.337 38.6059 193.667 38.8743C193.955 39.0933 194.307 39.2139 194.669 39.2182C195.063 39.2219 195.451 39.1185 195.791 38.9191C196.182 38.6664 196.486 38.298 196.658 37.865L196.927 37.9697C196.82 38.2862 196.655 38.5801 196.441 38.8369C196.21 39.1245 195.919 39.3591 195.589 39.5247C195.217 39.7081 194.806 39.7979 194.392 39.7864C193.806 39.8019 193.227 39.6488 192.725 39.3453C192.257 39.0402 191.884 38.6103 191.648 38.1043C191.393 37.5305 191.268 36.9077 191.281 36.2802C191.262 35.5764 191.389 34.8762 191.655 34.2243C191.879 33.691 192.25 33.2322 192.725 32.9011C193.201 32.5803 193.765 32.4133 194.34 32.4226ZM195.776 28.5725C195.83 28.6161 195.875 28.6705 195.907 28.7323C195.939 28.7941 195.958 28.8619 195.963 28.9314C195.961 29.1105 195.894 29.283 195.776 29.4173C195.626 29.6057 195.459 29.7785 195.275 29.9332L194.587 30.5387C194.317 30.7779 194.003 31.0919 193.644 31.4657L193.495 31.3461C193.771 30.905 193.996 30.5237 194.168 30.2098L194.594 29.3799C194.699 29.1651 194.827 28.9621 194.976 28.7744C195.021 28.697 195.083 28.6302 195.156 28.5786C195.23 28.527 195.313 28.4918 195.402 28.4753C195.534 28.4573 195.669 28.4922 195.776 28.5725Z" fill="white"/>
<path d="M205.43 30.0007C206.072 29.907 206.726 29.9628 207.343 30.1637C207.96 30.3646 208.521 30.7052 208.985 31.1589C209.448 31.6126 209.8 32.1672 210.014 32.7794C210.227 33.3916 210.297 34.0448 210.216 34.6881C210.236 35.5818 210.038 36.4669 209.64 37.2673C209.266 37.9931 208.683 38.5896 207.965 38.9793C207.145 39.4096 206.228 39.6208 205.303 39.5923H204.428C204.039 39.5923 203.68 39.5923 203.411 39.5923H202.476C202.169 39.5923 201.915 39.5923 201.728 39.6297V39.3605C201.963 39.3502 202.197 39.3126 202.424 39.2484C202.499 39.2245 202.568 39.1828 202.624 39.1269C202.68 39.0709 202.721 39.0023 202.745 38.9269C202.809 38.6831 202.837 38.4312 202.827 38.1793V31.451C202.838 31.1991 202.81 30.9471 202.745 30.7035C202.721 30.628 202.68 30.5594 202.624 30.5035C202.568 30.4475 202.499 30.4059 202.424 30.382C202.199 30.3099 201.964 30.2745 201.728 30.2773V30.0082H202.476C202.782 30.0082 203.082 30.0082 203.381 30.0082H204.45L205.43 30.0007ZM205.086 30.24C204.942 30.2216 204.797 30.2327 204.658 30.2726C204.519 30.3124 204.39 30.3802 204.278 30.4717C204.118 30.7555 204.05 31.0821 204.084 31.4062V38.1793C204.048 38.5069 204.119 38.8372 204.286 39.1213C204.4 39.2113 204.53 39.2776 204.67 39.3161C204.81 39.3546 204.957 39.3647 205.101 39.3456C205.901 39.3899 206.697 39.2058 207.397 38.8148C207.947 38.4404 208.35 37.8849 208.533 37.2448C208.767 36.4311 208.875 35.5867 208.855 34.7404C208.942 33.5523 208.652 32.367 208.025 31.3539C207.471 30.6137 206.492 30.24 205.056 30.24H205.086Z" fill="white"/>
<path d="M214.778 32.4228C215.321 32.414 215.856 32.5454 216.333 32.804C216.815 33.0784 217.201 33.4931 217.44 33.9927C217.74 34.6563 217.881 35.3808 217.851 36.1084C217.882 36.8337 217.741 37.5559 217.44 38.2166C217.201 38.7162 216.815 39.1309 216.333 39.4052C215.854 39.6582 215.32 39.7868 214.778 39.779C214.237 39.7839 213.702 39.6556 213.222 39.4052C212.741 39.1309 212.355 38.7162 212.116 38.2166C211.815 37.5559 211.674 36.8337 211.704 36.1084C211.675 35.3808 211.816 34.6563 212.116 33.9927C212.367 33.476 212.775 33.0521 213.282 32.7816C213.744 32.5428 214.258 32.4197 214.778 32.4228ZM214.778 32.6919C214.515 32.7026 214.261 32.7822 214.039 32.9226C213.817 33.063 213.636 33.2593 213.514 33.4918C212.844 35.1719 212.844 37.0449 213.514 38.725C213.634 38.9577 213.815 39.1535 214.038 39.2917C214.26 39.4299 214.516 39.5053 214.778 39.5099C215.041 39.5012 215.297 39.4234 215.52 39.2843C215.743 39.1452 215.926 38.9496 216.049 38.7175C216.71 37.0356 216.71 35.1663 216.049 33.4844C215.926 33.2522 215.743 33.0567 215.52 32.9175C215.297 32.7784 215.041 32.7006 214.778 32.6919Z" fill="white"/>
<path d="M221.232 30.3672V32.6099H223.236V32.8866H221.232V38.1197C221.199 38.4368 221.281 38.7552 221.464 39.0168C221.544 39.1035 221.643 39.1713 221.753 39.2153C221.863 39.2592 221.981 39.2782 222.099 39.271C222.233 39.2707 222.366 39.2411 222.487 39.1842C222.609 39.1274 222.716 39.0447 222.802 38.942C223.055 38.6112 223.232 38.2281 223.318 37.8206L223.587 37.8879C223.518 38.367 223.336 38.8229 223.057 39.2186C222.912 39.4017 222.724 39.5465 222.51 39.6404C222.296 39.7342 222.063 39.7742 221.83 39.7569C221.576 39.7621 221.323 39.7242 221.082 39.6447C220.888 39.5703 220.71 39.4586 220.559 39.3158C220.36 39.1048 220.216 38.848 220.14 38.5682C220.056 38.1904 220.018 37.8038 220.028 37.417V32.8791H218.727V32.6025H220.013V30.5391C220.237 30.5391 220.454 30.5391 220.663 30.4868C220.856 30.4655 221.047 30.4254 221.232 30.3672Z" fill="white"/>
<path d="M225.621 30.3672V32.6099H227.633V32.8866H225.621V38.1197C225.593 38.4365 225.674 38.7535 225.853 39.0168C225.934 39.1027 226.033 39.1699 226.143 39.2138C226.253 39.2577 226.371 39.2772 226.489 39.271C226.63 39.2763 226.771 39.2495 226.901 39.1925C227.03 39.1355 227.145 39.0499 227.237 38.942C227.484 38.6087 227.657 38.2264 227.745 37.8206L228.022 37.8879C227.949 38.3676 227.765 38.8235 227.483 39.2186C227.339 39.4017 227.151 39.5465 226.937 39.6404C226.723 39.7342 226.49 39.7742 226.257 39.7569C226.003 39.764 225.75 39.7261 225.509 39.6447C225.312 39.5723 225.131 39.4604 224.978 39.3158C224.779 39.1063 224.637 38.8487 224.567 38.5682C224.476 38.1914 224.436 37.8043 224.447 37.417V32.8791H223.146V32.6025H224.447V30.5391C224.672 30.5391 224.888 30.5391 225.098 30.4868C225.276 30.4627 225.451 30.4227 225.621 30.3672Z" fill="white"/>
<path d="M230.624 32.4677V38.3288C230.612 38.4631 230.627 38.5985 230.668 38.727C230.709 38.8554 230.775 38.9743 230.864 39.0764C231.097 39.2329 231.377 39.3042 231.656 39.2782V39.5623L230.961 39.5249H230.019H229.084L228.336 39.5623V39.2782C228.616 39.3042 228.896 39.2329 229.129 39.0764C229.217 38.9743 229.283 38.8554 229.325 38.727C229.366 38.5985 229.38 38.4631 229.368 38.3288V34.0899C229.392 33.7755 229.316 33.4615 229.151 33.1928C229.047 33.0841 228.92 33.0011 228.778 32.9505C228.637 32.8999 228.485 32.883 228.336 32.9013V32.6097C228.617 32.6391 228.899 32.6541 229.181 32.6546C229.431 32.6552 229.681 32.6403 229.929 32.6097C230.164 32.5796 230.396 32.5321 230.624 32.4677ZM229.921 29.2231C230.151 29.2231 230.372 29.3145 230.535 29.4771C230.697 29.6398 230.789 29.8604 230.789 30.0903C230.789 30.3203 230.697 30.5409 230.535 30.7036C230.372 30.8662 230.151 30.9576 229.921 30.9576C229.691 30.9576 229.471 30.8662 229.308 30.7036C229.145 30.5409 229.054 30.3203 229.054 30.0903C229.054 29.8604 229.145 29.6398 229.308 29.4771C229.471 29.3145 229.691 29.2231 229.921 29.2231Z" fill="white"/>
</svg>
